<svg width="400px" height="400px" viewBox="0 0 400 400" version="1.1" xmlns="http://www.w3.org/2000/svg" xmlns:xlink="http://www.w3.org/1999/xlink">
  <defs>
    <linearGradient x1="0%" y1="50%" x2="100%" y2="50%" id="shadeGradientLight">
      <stop stop-color="#D5E7D5" offset="0%"></stop>
      <stop stop-color="#B2CFB2" offset="16.67%"></stop>
      <stop stop-color="#8EB88E" offset="33.33%"></stop>
      <stop stop-color="#6BA16B" offset="50%"></stop>
      <stop stop-color="#478A47" offset="66.67%"></stop>
      <stop stop-color="#247224" offset="83.33%"></stop>
      <stop stop-color="#005B00" offset="100%"></stop>
    </linearGradient>
    <linearGradient x1="0%" y1="50%" x2="100%" y2="50%" id="shadeGradientDark">
      <stop stop-color="#1F3120" offset="0%"></stop>
      <stop stop-color="#3E523E" offset="16.67%"></stop>
      <stop stop-color="#5D735D" offset="33.33%"></stop>
      <stop stop-color="#7D957C" offset="50%"></stop>
      <stop stop-color="#9CB69B" offset="66.67%"></stop>
      <stop stop-color="#BBD7B9" offset="83.33%"></stop>
      <stop stop-color="#DAF8D8" offset="100%"></stop>
    </linearGradient>
  </defs>
  <g id="light">
    <rect fill="#F9FEF9" x="0" y="0" width="400" height="200"></rect>
    <rect fill="#DD5750" x="28" y="28" width="74" height="37"></rect>
    <rect fill="#D36700" x="118" y="28" width="74" height="37"></rect>
    <rect fill="#B67E00" x="208" y="28" width="74" height="37"></rect>
    <rect fill="#2EA343" x="298" y="28" width="74" height="37"></rect>
    <rect fill="#00A3BB" x="28" y="81" width="74" height="37"></rect>
    <rect fill="#5882EF" x="118" y="81" width="74" height="37"></rect>
    <rect fill="#946FE3" x="208" y="81" width="74" height="37"></rect>
    <rect fill="#BC5FBF" x="298" y="81" width="74" height="37"></rect>
    <rect fill="url(#shadeGradientLight)" x="28" y="134" width="344" height="37"></rect>
  </g>
  <g id="dark" transform="translate(0.000000, 200.000000)">
    <rect fill="#001001" x="0" y="0" width="400" height="200"></rect>
    <rect fill="#FF7970" x="28" y="28" width="74" height="37"></rect>
    <rect fill="#FF8E00" x="118" y="28" width="74" height="37"></rect>
    <rect fill="#F5AC00" x="208" y="28" width="74" height="37"></rect>
    <rect fill="#45DC5F" x="298" y="28" width="74" height="37"></rect>
    <rect fill="#00DDFC" x="28" y="81" width="74" height="37"></rect>
    <rect fill="#7BB1FF" x="118" y="81" width="74" height="37"></rect>
    <rect fill="#C998FF" x="208" y="81" width="74" height="37"></rect>
    <rect fill="#FD83DD" x="298" y="81" width="74" height="37"></rect>
    <rect fill="url(#shadeGradientDark)" x="28" y="134" width="344" height="37"></rect>
  </g>
</svg>